<svg width="200" height="36" viewBox="0 0 200 36" fill="none" xmlns="http://www.w3.org/2000/svg">
<g clip-path="url(#clip0)">
<path d="M225 8.57143V5.31333e-07L25 5.31333e-07V8.57143C37.1429 8.57143 37.1429 20 50 20C62.1429 20 62.1429 8.57143 75 8.57143C87.8571 8.57143 87.1429 20 100 20C112.143 20 112.143 8.57143 125 8.57143C137.143 8.57143 137.143 20 150 20C162.857 20 162.143 8.57143 175 8.57143C187.143 8.57143 187.143 20 200 20C212.143 20 212.143 8.57143 225 8.57143Z" fill="#F1F1F1"/>
<path d="M25 8.57143L25 5.31333e-07L-175 5.31333e-07V8.57143C-162.857 8.57143 -162.857 20 -150 20C-137.857 20 -137.857 8.57143 -125 8.57143C-112.143 8.57143 -112.857 20 -100 20C-87.8571 20 -87.8571 8.57143 -75 8.57143C-62.8571 8.57143 -62.8571 20 -50 20C-37.1429 20 -37.8571 8.57143 -25 8.57143C-12.8571 8.57143 -12.8571 20 2.38419e-07 20C12.1429 20 12.1429 8.57143 25 8.57143Z" fill="#F1F1F1"/>
<path d="M-200 7.14287L400 7.14287V-37.1428L-200 -37.1428V7.14287Z" fill="#F1F1F1"/>
</g>
<defs>
<clipPath id="clip0">
<rect width="200" height="35.7143" fill="white" transform="translate(200 35.7143) rotate(-180)"/>
</clipPath>
</defs>
</svg>
