<svg width="200" height="36" viewBox="0 0 200 36" fill="none" xmlns="http://www.w3.org/2000/svg">
<g clip-path="url(#clip0)">
<path d="M0 27.1429V35.7143H200V27.1429C187.857 27.1429 187.857 15.7143 175 15.7143C162.857 15.7143 162.857 27.1429 150 27.1429C137.143 27.1429 137.857 15.7143 125 15.7143C112.857 15.7143 112.857 27.1429 100 27.1429C87.8571 27.1429 87.8571 15.7143 75 15.7143C62.1429 15.7143 62.8571 27.1429 50 27.1429C37.8571 27.1429 37.8571 15.7143 25 15.7143C12.8571 15.7143 12.8571 27.1429 0 27.1429Z" fill="#F1F1F1"/>
<path d="M400 28.5714H-200V72.8571H400V28.5714Z" fill="#F1F1F1"/>
</g>
<defs>
<clipPath id="clip0">
<rect width="200" height="35.7143" fill="white"/>
</clipPath>
</defs>
</svg>
