<svg width="48" height="48" viewBox="0 0 48 48" fill="none" xmlns="http://www.w3.org/2000/svg">
<path d="M24 12C17.373 12 12 17.373 12 24C12 30.627 17.373 36 24 36C30.627 36 36 30.627 36 24C36 17.373 30.627 12 24 12ZM24 31.66C23.062 31.66 22.42 30.937 22.42 30C22.42 29.036 23.089 28.34 24 28.34C24.963 28.34 25.58 29.036 25.58 30C25.58 30.938 24.963 31.66 24 31.66ZM24.622 25.321C24.383 26.136 23.63 26.15 23.379 25.321C23.09 24.365 22.063 20.736 22.063 18.379C22.063 15.269 25.954 15.254 25.954 18.379C25.953 20.75 24.871 24.473 24.622 25.321Z" fill="#FFB300"/>
</svg>
