<svg width="40" height="40" viewBox="0 0 40 40" fill="none" xmlns="http://www.w3.org/2000/svg">
<path d="M6.3002 14.7L4.1002 12.6C3.9002 12.4 3.9002 12 4.1002 11.8C4.3002 11.6 4.6002 11.6 4.8002 11.7L7.3002 13.4C7.7002 13.6 7.8002 14.1 7.5002 14.5C7.2002 15 6.8002 15.1 6.3002 14.7C6.3002 14.8 6.4002 14.8 6.3002 14.7Z" fill="#4B4B4B"/>
<path d="M2.7 11.2C2 10.4 1.4 9.6 1 8.6C1 8.5 1 8.5 1.1 8.5H1.2C1.7 9.3 2.5 9.9 3.2 10.6C3.4 10.7 3.4 11 3.3 11.2C3.1 11.4 2.9 11.4 2.7 11.2Z" fill="#4B4B4B"/>
<path d="M10.1998 1.1C10.0998 2.1 9.9998 3.1 10.0998 4.1C10.0998 4.3 9.8998 4.5 9.6998 4.5C9.4998 4.5 9.2998 4.3 9.2998 4.1C9.2998 4.1 9.2998 4.1 9.2998 4C9.3998 3 9.6998 2 9.9998 1C9.9998 1 10.0998 1 10.0998 1C10.1998 1 10.1998 1.1 10.1998 1.1Z" fill="#4B4B4B"/>
<path d="M10.2996 7L10.9996 9.9V10C11.0996 10.4 10.7996 10.9 10.3996 11C9.99961 11.1 9.49961 10.8 9.39961 10.4V10.3L9.09961 7.1C9.09961 6.8 9.29961 6.5 9.59961 6.5C9.99961 6.4 10.1996 6.6 10.2996 7Z" fill="#4B4B4B"/>
<path d="M20.0999 7C19.4999 7.3 19.0999 7.8 18.5999 8.3C18.4999 8.4 18.2999 8.5 18.0999 8.3C17.9999 8.2 17.9999 8 18.1999 7.8C18.1999 7.8 18.1999 7.8 18.2999 7.7C18.8999 7.3 19.4999 6.9 20.0999 6.8C20.1999 6.8 20.1999 6.8 20.1999 6.9C20.1999 6.9 20.1999 7 20.0999 7Z" fill="#4B4B4B"/>
<path d="M17.5002 9.8C17.2002 10.4 16.9002 10.9 16.6002 11.5V11.6C16.4002 12 15.9002 12.1 15.6002 11.9C15.3002 11.7 15.1002 11.2 15.3002 10.9C15.3002 10.9 15.3002 10.8 15.4002 10.8C15.8002 10.3 16.3002 9.7 16.7002 9.2C16.9002 9 17.2002 8.9 17.5002 9.1C17.6002 9.3 17.7002 9.5 17.5002 9.8Z" fill="#4B4B4B"/>
<path d="M15.8001 13.3C15.6001 14.1 15.3001 14.8 14.9001 15.5C14.6001 16.2 14.2001 16.9 13.8001 17.6C13.9001 17.7 14.1001 17.8 14.2001 18C14.2001 18.1 14.3001 18.1 14.3001 18.2C14.6001 19.5 15.0001 20.7 15.5001 21.9C15.6001 22.1 15.5001 22.5 15.3001 22.6C15.1001 22.7 14.8001 22.6 14.7001 22.5C13.8001 21.4 13.1001 20.2 12.5001 19C12.4001 18.9 12.4001 18.7 12.4001 18.5C12.2001 18.5 12.0001 18.4 11.9001 18.3C11.4001 18.1 10.9001 17.9 10.5001 17.7C9.60015 17.3 8.70015 16.7 8.00015 16.1C7.60015 15.7 7.50015 15.1 7.90015 14.7C8.00015 14.3 8.60015 14.3 9.00015 14.5C9.90015 15 10.6001 15.6 11.4001 16.3C11.3001 16.2 11.3001 16.1 11.2001 16.1C10.7001 15.2 10.2001 14.3 10.0001 13.3C9.80015 12.8 10.2001 12.2 10.7001 12C11.2001 11.9 11.7001 12.1 11.9001 12.6C12.2001 13.5 12.5001 14.4 12.7001 15.4C12.7001 15.6 12.8001 15.8 12.9001 16C12.9001 15.6 13.0001 15.3 13.1001 14.9C13.3001 14 13.7001 13.2 14.1001 12.5C14.4001 12.1 15.0001 12 15.4001 12.2C15.8001 12.5 15.9001 12.9 15.8001 13.3Z" fill="#4B4B4B"/>
<path d="M16.6 23.6L17.2 24.4C17.3 24.5 17.2 24.6 17.2 24.6C17.1 24.6 17.1 24.6 17 24.6L16.2 24C16.1 23.9 16.1 23.7 16.2 23.6C16.2 23.4 16.4 23.4 16.6 23.6C16.5 23.5 16.5 23.5 16.6 23.6Z" fill="#4B4B4B"/>
<path d="M33.7006 29.1L35.9006 27C36.1006 26.8 36.1006 26.4 35.9006 26.2C35.7006 26 35.4006 26 35.2006 26.1L32.7006 27.8C32.3006 28 32.2006 28.5 32.5006 28.9C32.8006 29.4 33.2006 29.5 33.7006 29.1C33.7006 29.2 33.6006 29.2 33.7006 29.1Z" fill="#4B4B4B"/>
<path d="M37.3005 25.6C38.0005 24.8 38.6005 24 39.0005 23C39.0005 22.9 39.0005 22.9 38.9005 22.9H38.8005C38.3005 23.7 37.5005 24.3 36.8005 25C36.6005 25.1 36.6005 25.4 36.7005 25.6C36.8005 25.8 37.1005 25.8 37.3005 25.6Z" fill="#4B4B4B"/>
<path d="M29.7998 15.5C29.8998 16.5 29.9998 17.5 29.8998 18.5C29.8998 18.7 30.0998 18.9 30.2998 18.9C30.4998 18.9 30.6998 18.7 30.6998 18.5C30.6998 18.5 30.6998 18.5 30.6998 18.4C30.5998 17.4 30.2998 16.4 29.9998 15.4C29.9998 15.3 29.8998 15.3 29.8998 15.3C29.7998 15.4 29.7998 15.5 29.7998 15.5Z" fill="#4B4B4B"/>
<path d="M29.6999 21.4L28.9999 24.2V24.3C28.8999 24.7 29.1999 25.2 29.5999 25.3C29.9999 25.4 30.4999 25.1 30.5999 24.7V24.6L30.8998 21.5C30.8998 21.2 30.6998 20.9 30.3998 20.9C29.9998 20.8 29.7999 21 29.6999 21.4Z" fill="#4B4B4B"/>
<path d="M19.9002 21.4C20.5002 21.7 20.9002 22.2 21.4002 22.7C21.5002 22.8 21.7002 22.9 21.9002 22.7C22.0002 22.6 22.1002 22.4 21.9002 22.2C21.9002 22.2 21.9002 22.2 21.8002 22.1C21.2002 21.7 20.6002 21.3 20.0002 21.2C19.9002 21.2 19.9002 21.2 19.9002 21.3C19.8002 21.3 19.8002 21.4 19.9002 21.4Z" fill="#4B4B4B"/>
<path d="M22.5002 24.2C22.8002 24.8 23.1002 25.3 23.4002 25.9V26C23.6002 26.4 24.1002 26.5 24.4002 26.3C24.7002 26.1 24.9002 25.6 24.7002 25.3C24.7002 25.3 24.7002 25.2 24.6002 25.2C24.2002 24.7 23.7002 24.1 23.3002 23.6C23.1002 23.4 22.8002 23.3 22.5002 23.5C22.4002 23.6 22.3002 23.9 22.5002 24.2Z" fill="#4B4B4B"/>
<path d="M24.2006 27.7C24.4006 28.5 24.7006 29.2 25.1006 29.9C25.4006 30.6 25.8006 31.3 26.2006 32C26.1006 32.1 25.9006 32.2 25.8006 32.4C25.8006 32.5 25.7006 32.5 25.7006 32.6C25.4006 33.9 25.0006 35.1 24.5006 36.3C24.4006 36.5 24.5006 36.9 24.7006 37C24.9006 37.1 25.2006 37 25.3006 36.9C26.2006 35.8 26.9006 34.6 27.5006 33.4C27.6006 33.3 27.6006 33.1 27.6006 32.9C27.8006 32.9 28.0006 32.8 28.1006 32.7C28.6006 32.5 29.1006 32.3 29.5006 32.1C30.4006 31.7 31.3006 31.1 32.0006 30.5C32.4006 30.1 32.5006 29.5 32.1006 29.1C31.8006 28.7 31.3006 28.7 30.9006 28.9C30.0006 29.4 29.3006 30 28.5006 30.7C28.6006 30.6 28.6006 30.5 28.7006 30.5C29.2006 29.6 29.7006 28.7 29.9006 27.7C30.1006 27.2 29.7006 26.6 29.2006 26.4C28.7006 26.3 28.2006 26.5 28.0006 27C27.7006 27.9 27.4006 28.8 27.2006 29.8C27.2006 30 27.1006 30.2 27.0006 30.4C27.0006 30 26.9006 29.7 26.8006 29.3C26.6006 28.4 26.2006 27.6 25.8006 26.9C25.5006 26.5 24.9006 26.4 24.5006 26.6C24.2006 26.9 24.1006 27.3 24.2006 27.7Z" fill="#4B4B4B"/>
<path d="M23.4003 38L22.8003 38.8C22.7003 38.9 22.8003 39 22.8003 39C22.9003 39 22.9003 39 23.0003 39L23.8003 38.4C23.9003 38.3 23.9003 38.1 23.8003 38C23.8003 37.8 23.6003 37.8 23.4003 38C23.5003 37.9 23.5003 37.9 23.4003 38Z" fill="#4B4B4B"/>
</svg>
