<svg width="40" height="40" viewBox="0 0 40 40" fill="none" xmlns="http://www.w3.org/2000/svg">
<path d="M6.3002 29.1L4.1002 27C3.9002 26.8 3.9002 26.4 4.1002 26.2C4.2002 26 4.5002 26 4.8002 26.2L7.3002 27.9C7.7002 28.1 7.8002 28.6 7.5002 29C7.2002 29.4 6.8002 29.5 6.3002 29.1C6.3002 29.2 6.4002 29.2 6.3002 29.1Z" fill="#4B4B4B"/>
<path d="M2.7 25.6C2 24.8 1.4 24 1 23C1 22.9 1 22.9 1.1 22.9H1.2C1.7 23.7 2.5 24.3 3.2 25C3.4 25.1 3.4 25.4 3.3 25.6C3.1 25.7 2.9 25.8 2.7 25.6Z" fill="#4B4B4B"/>
<path d="M10.1998 15.5C10.0998 16.5 9.9998 17.5 10.0998 18.5C10.0998 18.7 9.8998 18.9 9.6998 18.9C9.4998 18.9 9.2998 18.7 9.2998 18.5C9.2998 18.5 9.2998 18.5 9.2998 18.4C9.3998 17.4 9.6998 16.4 9.9998 15.4C9.9998 15.3 10.0998 15.3 10.0998 15.3C10.1998 15.4 10.1998 15.5 10.1998 15.5Z" fill="#4B4B4B"/>
<path d="M10.3 21.4L10.9 24.3V24.4C11 24.8 10.7 25.3 10.3 25.4C9.9 25.5 9.4 25.2 9.3 24.8V24.7L9 21.6C9 21.3 9.2 21 9.5 21C10 20.8 10.2 21 10.3 21.4Z" fill="#4B4B4B"/>
<path d="M20.0998 21.4C19.4998 21.7 19.0998 22.2 18.5998 22.7C18.4998 22.8 18.2998 22.9 18.0998 22.7C17.9998 22.6 17.8998 22.4 18.0998 22.2C18.0998 22.2 18.0998 22.2 18.1998 22.1C18.7998 21.7 19.3998 21.3 19.9998 21.2C20.0998 21.2 20.0998 21.2 20.0998 21.3C20.1998 21.3 20.1998 21.4 20.0998 21.4Z" fill="#4B4B4B"/>
<path d="M17.5002 24.2C17.2002 24.8 16.9002 25.3 16.6002 25.9V26C16.4002 26.4 15.9002 26.5 15.6002 26.3C15.3002 26.1 15.1002 25.6 15.3002 25.3C15.3002 25.3 15.3002 25.2 15.4002 25.2C15.8002 24.7 16.3002 24.1 16.7002 23.6C16.9002 23.4 17.2002 23.3 17.5002 23.5C17.6002 23.6 17.7002 23.9 17.5002 24.2Z" fill="#4B4B4B"/>
<path d="M15.8001 27.7C15.6001 28.5 15.3001 29.2 14.9001 29.9C14.6001 30.6 14.2001 31.3 13.8001 32C13.9001 32.1 14.1001 32.2 14.2001 32.4C14.2001 32.5 14.3001 32.5 14.3001 32.6C14.6001 33.9 15.0001 35.1 15.5001 36.3C15.6001 36.5 15.5001 36.9 15.3001 37C15.1001 37.1 14.8001 37 14.7001 36.9C13.8001 35.8 13.1001 34.6 12.5001 33.4C12.4001 33.3 12.4001 33.1 12.4001 32.9C12.2001 32.9 12.0001 32.8 11.9001 32.7C11.4001 32.5 10.9001 32.3 10.5001 32.1C9.60015 31.7 8.70015 31.1 8.00015 30.5C7.60015 30.1 7.50015 29.5 7.90015 29.1C8.00015 28.7 8.60015 28.7 9.00015 28.9C9.90015 29.4 10.6001 30 11.4001 30.7C11.3001 30.6 11.3001 30.5 11.2001 30.5C10.7001 29.6 10.2001 28.7 10.0001 27.7C9.80015 27.2 10.2001 26.6 10.7001 26.4C11.2001 26.3 11.7001 26.5 11.9001 27C12.2001 27.9 12.5001 28.8 12.7001 29.8C12.7001 30 12.8001 30.2 12.9001 30.4C12.9001 30 13.0001 29.7 13.1001 29.3C13.3001 28.4 13.7001 27.6 14.1001 26.9C14.4001 26.5 15.0001 26.4 15.4001 26.6C15.8001 26.9 15.9001 27.3 15.8001 27.7Z" fill="#4B4B4B"/>
<path d="M16.6 38L17.2 38.8C17.3 38.9 17.2 39 17.2 39C17.1 39 17.1 39 17 39L16.2 38.4C16.1 38.3 16.1 38.1 16.2 38C16.2 37.8 16.4 37.8 16.6 38C16.5 37.9 16.5 37.9 16.6 38Z" fill="#4B4B4B"/>
<path d="M33.6996 14.7L35.8996 12.6C36.0996 12.4 36.0996 12 35.8996 11.8C35.6996 11.6 35.3996 11.6 35.1996 11.7L32.6996 13.4C32.2996 13.6 32.1996 14.1 32.4996 14.5C32.7996 15 33.1996 15.1 33.6996 14.7C33.6996 14.8 33.5996 14.8 33.6996 14.7Z" fill="#4B4B4B"/>
<path d="M37.2995 11.2C37.8995 10.4 38.5995 9.6 38.9995 8.6C38.9995 8.5 38.9995 8.5 38.8995 8.5H38.7995C38.2995 9.3 37.4995 9.9 36.7995 10.6C36.5995 10.7 36.5995 11 36.6995 11.2C36.7995 11.4 37.0995 11.4 37.2995 11.2Z" fill="#4B4B4B"/>
<path d="M29.7998 1.1C29.8998 2.1 29.9998 3.1 29.8998 4.1C29.8998 4.3 30.0998 4.5 30.2998 4.5C30.4998 4.5 30.6998 4.3 30.6998 4.1C30.6998 4.1 30.6998 4.1 30.6998 4C30.5998 3 30.2998 2 29.9998 1C29.9998 1 29.8998 1 29.8998 1C29.7998 1 29.7998 1.1 29.7998 1.1Z" fill="#4B4B4B"/>
<path d="M29.6999 7L28.9999 9.9V10C28.8999 10.4 29.1999 10.9 29.5999 11C29.9999 11.1 30.4999 10.8 30.5999 10.4V10.3L30.8998 7.2C30.8998 6.9 30.6998 6.6 30.3998 6.6C29.9998 6.4 29.7999 6.6 29.6999 7Z" fill="#4B4B4B"/>
<path d="M19.8998 7C20.4998 7.3 20.8998 7.8 21.3998 8.3C21.4998 8.4 21.6998 8.5 21.8998 8.3C21.9998 8.2 21.9998 8 21.7998 7.8C21.7998 7.8 21.7998 7.8 21.6998 7.7C21.0998 7.3 20.4998 6.9 19.8998 6.8C19.7998 6.8 19.7998 6.8 19.7998 6.9C19.7998 6.9 19.7998 7 19.8998 7Z" fill="#4B4B4B"/>
<path d="M22.5002 9.8C22.8002 10.4 23.1002 10.9 23.4002 11.5V11.6C23.6002 12 24.1002 12.1 24.4002 11.9C24.7002 11.7 24.9002 11.2 24.7002 10.9C24.7002 10.9 24.7002 10.8 24.6002 10.8C24.2002 10.3 23.7002 9.7 23.3002 9.2C23.1002 9 22.8002 8.9 22.5002 9.1C22.4002 9.3 22.3002 9.5 22.5002 9.8Z" fill="#4B4B4B"/>
<path d="M24.1996 13.3C24.3996 14.1 24.6996 14.8 25.0996 15.5C25.3996 16.2 25.7996 16.9 26.1996 17.6C26.0996 17.7 25.8996 17.8 25.7996 18C25.7996 18.1 25.6996 18.1 25.6996 18.2C25.3996 19.5 24.9996 20.7 24.4996 21.9C24.3996 22.1 24.4996 22.5 24.6996 22.6C24.8996 22.7 25.1996 22.6 25.2996 22.5C26.1996 21.4 26.8996 20.2 27.4996 19C27.5996 18.9 27.5996 18.7 27.5996 18.5C27.7996 18.5 27.9996 18.4 28.0996 18.3C28.5996 18.1 29.0996 17.9 29.4996 17.7C30.3996 17.3 31.2996 16.7 31.9996 16.1C32.3996 15.7 32.4996 15.1 32.0996 14.7C31.7996 14.3 31.2996 14.3 30.8996 14.5C29.9996 15 29.2996 15.6 28.4996 16.3C28.5996 16.2 28.5996 16.1 28.6996 16.1C29.1996 15.2 29.6996 14.3 29.8996 13.3C30.0996 12.8 29.6996 12.2 29.1996 12C28.6996 11.9 28.1996 12.1 27.9996 12.6C27.6996 13.5 27.3996 14.4 27.1996 15.4C27.1996 15.6 27.0996 15.8 26.9996 16C26.9996 15.6 26.8996 15.3 26.7996 14.9C26.5996 14 26.1996 13.2 25.7996 12.5C25.4996 12.1 24.8996 12 24.4996 12.2C24.1996 12.5 24.0996 12.9 24.1996 13.3Z" fill="#4B4B4B"/>
<path d="M23.3993 23.6L22.7993 24.4C22.6993 24.5 22.7993 24.6 22.7993 24.6C22.8993 24.6 22.8993 24.6 22.9993 24.6L23.7993 24C23.8993 23.9 23.8993 23.7 23.7993 23.6C23.7993 23.4 23.5993 23.4 23.3993 23.6C23.4993 23.5 23.4993 23.5 23.3993 23.6Z" fill="#4B4B4B"/>
</svg>
