<svg width="30" height="30" viewBox="0 0 30 30" fill="none" xmlns="http://www.w3.org/2000/svg">
<mask id="mask0" mask-type="alpha" maskUnits="userSpaceOnUse" x="0" y="0" width="30" height="30">
<rect width="30" height="30" fill="#C4C4C4"/>
</mask>
<g mask="url(#mask0)">
</g>
<path d="M6.66774 4.48709C5.05484 4.48709 4 5.54516 4 6.9387C4 8.29999 5.02258 9.39032 6.60645 9.39032H6.63548C8.28064 9.39032 9.30323 8.29999 9.30323 6.9387C9.27419 5.54516 8.28064 4.48709 6.66774 4.48709Z" fill="#1A1A1A"/>
<path d="M4.27734 11.3258H8.99347V25.5129H4.27734V11.3258Z" fill="#1A1A1A"/>
<path d="M20.5713 10.9935C18.0261 10.9935 16.3196 13.3839 16.3196 13.3839V11.3258H11.6035V25.5129H16.3196V17.5903C16.3196 17.1677 16.3519 16.7419 16.4745 16.4387C16.8164 15.5903 17.5906 14.7129 18.8938 14.7129C20.6003 14.7129 21.2842 16.0129 21.2842 17.9226V25.5129H26.0003V17.3774C26.0003 13.0193 23.6745 10.9935 20.5713 10.9935Z" fill="#1A1A1A"/>
</svg>
