<svg width="48" height="48" viewBox="0 0 48 48" fill="none" xmlns="http://www.w3.org/2000/svg">
<path d="M12.8245 22.2455C12.2745 22.8755 11.9994 23.6204 11.9994 24.4806C11.9994 25.2606 12.2848 25.9355 12.8536 26.5059C13.4236 27.0761 14.0986 27.3611 14.8786 27.3611L19.0337 27.3611C18.9938 27.5011 18.9537 27.6211 18.9138 27.7211C18.8742 27.8211 18.8186 27.9312 18.7489 28.0512C18.6792 28.1712 18.629 28.2613 18.5991 28.3212C18.4191 28.661 18.2814 28.9412 18.1863 29.1611C18.0913 29.3813 17.9968 29.6812 17.9015 30.0612C17.8063 30.4411 17.759 30.8212 17.759 31.2013C17.759 31.4412 17.7619 31.6364 17.7667 31.7863C17.7713 31.9363 17.7968 32.1614 17.8414 32.4614C17.8867 32.7613 17.9468 33.0114 18.0216 33.2113C18.0968 33.4112 18.2169 33.6364 18.3816 33.8863C18.5467 34.1366 18.7466 34.3388 18.9818 34.4939C19.217 34.6489 19.5169 34.7789 19.8819 34.8838C20.2473 34.9888 20.6596 35.0413 21.1199 35.0413C21.3799 35.0413 21.6047 34.9463 21.7949 34.7562C21.9949 34.5563 22.1652 34.3063 22.305 34.0064C22.4451 33.7063 22.5427 33.4463 22.5977 33.2262C22.6528 33.0062 22.7153 32.7011 22.7851 32.3112C22.8754 31.891 22.9426 31.5887 22.9879 31.4037C23.0328 31.2187 23.1205 30.9762 23.2504 30.6762C23.3806 30.3761 23.5354 30.1362 23.7155 29.9561C24.0454 29.6262 24.5504 29.0261 25.2306 28.1561C25.7208 27.5162 26.2257 26.9112 26.7457 26.3411C27.2658 25.7709 27.6458 25.476 27.8858 25.4559C28.1356 25.436 28.3507 25.3335 28.5307 25.1484C28.7108 24.9634 28.8008 24.7458 28.8008 24.4959L28.8008 14.8804C28.8008 14.6204 28.7058 14.3979 28.5158 14.213C28.3259 14.0277 28.1008 13.9303 27.8408 13.9202C27.4908 13.9102 26.7008 13.6904 25.4706 13.26C24.7007 13.0004 24.0982 12.8026 23.6632 12.6678C23.2282 12.533 22.6203 12.3878 21.8408 12.2326C21.0606 12.0777 20.3407 12 19.6809 12L19.4258 12L18.2856 12L17.7457 12C16.4153 12.02 15.4307 12.4101 14.7904 13.17C14.2106 13.8601 13.9657 14.7652 14.0553 15.8852C13.6654 16.2552 13.3952 16.725 13.2454 17.2952C13.0756 17.9049 13.0756 18.49 13.2454 19.0499C12.7854 19.66 12.5704 20.345 12.6006 21.105C12.5993 21.4254 12.6741 21.8053 12.8245 22.2455Z" fill="#C62828"/>
<path d="M35.0398 25.4407L30.7196 25.4407C30.4595 25.4407 30.2346 25.3457 30.0446 25.1556C29.8546 24.9656 29.7596 24.7406 29.7596 24.4806L29.7596 14.8796C29.7596 14.6199 29.8546 14.3948 30.0446 14.2046C30.2347 14.0149 30.4596 13.9198 30.7196 13.9198L35.0397 13.9198C35.2997 13.9198 35.5248 14.0149 35.7149 14.2046C35.905 14.3948 36 14.62 36 14.8796L36 24.4806C36 24.7406 35.905 24.9657 35.715 25.1556C35.525 25.3457 35.2999 25.4407 35.0398 25.4407Z" fill="#C62828"/>
</svg>
