<svg width="48" height="48" viewBox="0 0 48 48" fill="none" xmlns="http://www.w3.org/2000/svg">
<path d="M35.1755 24.7958C35.7255 24.1659 36.0006 23.4209 36.0006 22.5607C36.0006 21.7807 35.7152 21.1058 35.1464 20.5355C34.5764 19.9652 33.9014 19.6802 33.1214 19.6802H28.9663C29.0062 19.5402 29.0463 19.4202 29.0862 19.3202C29.1258 19.2203 29.1814 19.1101 29.2511 18.9901C29.3208 18.8701 29.371 18.78 29.4009 18.7201C29.5809 18.3803 29.7186 18.1001 29.8137 17.8803C29.9087 17.66 30.0032 17.3601 30.0985 16.9801C30.1937 16.6003 30.241 16.2201 30.241 15.84C30.241 15.6001 30.2381 15.405 30.2333 15.2551C30.2287 15.1051 30.2032 14.88 30.1586 14.5799C30.1133 14.28 30.0532 14.03 29.9784 13.83C29.9032 13.6301 29.7831 13.4049 29.6184 13.1551C29.4533 12.9048 29.2534 12.7025 29.0182 12.5474C28.783 12.3924 28.4831 12.2624 28.1181 12.1575C27.7527 12.0525 27.3404 12 26.8801 12C26.6201 12 26.3953 12.095 26.2051 12.2851C26.0051 12.4851 25.8348 12.735 25.695 13.0349C25.5549 13.335 25.4573 13.595 25.4023 13.8151C25.3472 14.0351 25.2847 14.3402 25.2149 14.7301C25.1246 15.1503 25.0574 15.4527 25.0121 15.6377C24.9672 15.8227 24.8795 16.0651 24.7496 16.3651C24.6194 16.6653 24.4646 16.9051 24.2845 17.0852C23.9546 17.4152 23.4496 18.0152 22.7694 18.8852C22.2792 19.5252 21.7743 20.1302 21.2543 20.7002C20.7342 21.2704 20.3542 21.5654 20.1142 21.5854C19.8644 21.6053 19.6493 21.7079 19.4693 21.893C19.2892 22.0779 19.1992 22.2955 19.1992 22.5455V32.1609C19.1992 32.421 19.2942 32.6434 19.4842 32.8284C19.6741 33.0136 19.8992 33.111 20.1592 33.1211C20.5092 33.1311 21.2992 33.3509 22.5294 33.7813C23.2993 34.0409 23.9018 34.2387 24.3368 34.3735C24.7718 34.5084 25.3797 34.6535 26.1592 34.8087C26.9394 34.9636 27.6593 35.0413 28.3191 35.0413H28.5742H29.7144H30.2543C31.5847 35.0214 32.5693 34.6312 33.2096 33.8714C33.7894 33.1812 34.0343 32.2762 33.9447 31.1561C34.3346 30.7861 34.6048 30.3163 34.7546 29.7461C34.9244 29.1364 34.9244 28.5513 34.7546 27.9914C35.2146 27.3814 35.4296 26.6963 35.3994 25.9363C35.4007 25.6159 35.3259 25.236 35.1755 24.7958Z" fill="#43A047"/>
<path d="M12.9602 21.6006H17.2804C17.5405 21.6006 17.7654 21.6956 17.9554 21.8857C18.1454 22.0757 18.2404 22.3007 18.2404 22.5607V32.1617C18.2404 32.4214 18.1454 32.6465 17.9554 32.8367C17.7653 33.0264 17.5404 33.1215 17.2804 33.1215H12.9603C12.7003 33.1215 12.4752 33.0264 12.2851 32.8367C12.095 32.6465 12 32.4214 12 32.1617V22.5607C12 22.3007 12.095 22.0756 12.285 21.8857C12.475 21.6957 12.7001 21.6006 12.9602 21.6006Z" fill="#43A047"/>
</svg>
